<?xml version="1.0" standalone="no"?>
<!DOCTYPE svg PUBLIC "-//W3C//DTD SVG 20010904//EN"
 "http://www.w3.org/TR/2001/REC-SVG-20010904/DTD/svg10.dtd">
<svg version="1.0" xmlns="http://www.w3.org/2000/svg"
 width="80.000000pt" height="80.000000pt" viewBox="0 0 80.000000 80.000000"
 preserveAspectRatio="xMidYMid meet">

<g transform="translate(0.000000,80.000000) scale(0.100000,-0.100000)"
fill="#000000" stroke="none">
<path d="M331 789 c-155 -26 -295 -168 -320 -326 -41 -264 188 -493 452 -452
163 26 300 163 326 328 42 263 -192 494 -458 450z m-23 -61 c18 -18 14 -46 -7
-58 -25 -13 -48 -4 -56 21 -12 38 35 65 63 37z m333 -128 c33 -34 59 -63 59
-66 0 -17 -24 -46 -49 -58 -26 -14 -28 -20 -28 -68 1 -66 -39 -146 -92 -182
-42 -29 -121 -51 -153 -43 -13 4 -31 -1 -46 -14 -17 -13 -40 -19 -74 -19 -43
0 -54 4 -84 34 -19 19 -34 44 -34 56 0 13 -11 33 -25 46 -44 40 -24 114 31
114 18 0 25 7 30 28 29 132 104 201 219 202 28 0 61 7 75 15 14 8 45 14 69 15
40 0 48 -4 102 -60z m-139 -467 c20 -18 24 -48 8 -58 -5 -3 -10 -1 -10 6 0 7
-3 10 -6 6 -3 -3 -17 -2 -30 3 -16 7 -23 6 -21 -2 1 -6 -4 -13 -10 -15 -9 -3
-13 6 -13 26 0 47 46 66 82 34z"/>
<path d="M265 691 c-7 -12 12 -24 25 -16 11 7 4 25 -10 25 -5 0 -11 -4 -15 -9z"/>
<path d="M555 570 c21 -24 26 -25 19 -6 -3 8 -13 17 -22 21 -13 5 -13 2 3 -15z"/>
<path d="M250 390 c0 -5 5 -10 11 -10 5 0 7 5 4 10 -3 6 -8 10 -11 10 -2 0 -4
-4 -4 -10z"/>
<path d="M155 360 c-16 -7 -17 -9 -3 -9 9 -1 20 4 23 9 7 11 7 11 -20 0z"/>
<path d="M127 329 c7 -7 15 -10 18 -7 3 3 -2 9 -12 12 -14 6 -15 5 -6 -5z"/>
<path d="M110 316 c0 -2 7 -9 15 -16 9 -7 15 -8 15 -2 0 5 -7 12 -15 16 -8 3
-15 4 -15 2z"/>
<path d="M210 268 c0 -21 27 -48 48 -48 15 1 15 2 -1 15 -10 7 -25 22 -32 32
-13 16 -14 16 -15 1z"/>
</g>
</svg>
